{
  "source": "C:\\Users\\Peter\\Desktop\\stuff\\MIUN\\quantitative_research\\video_compression\\videos\\BVI-HD\\BVI-HD_CDVL_videos\\ORIG\\CloudsZoom_1920x1080_60fps.mp4",
  "output": "C:\\Users\\Peter\\Desktop\\stuff\\MIUN\\quantitative_research\\video_compression\\compressed_videos\\BVI-HD\\hevc\\2\\CloudsZoom_1920x1080_60fps_hevc.mp4",
  "codec": "hevc",
  "ok": "Input #0, mov,mp4,m4a,3gp,3g2,mj2, from 'C:\\Users\\Peter\\Desktop\\stuff\\MIUN\\quantitative_research\\video_compression\\videos\\BVI-HD\\BVI-HD_CDVL_videos\\ORIG\\CloudsZoom_1920x1080_60fps.mp4':\n  Metadata:\n    major_brand     : isom\n    minor_version   : 512\n    compatible_brands: isomiso2avc1mp41\n    encoder         : Lavf54.28.101\n  Duration: 00:00:05.00, start: 0.000000, bitrate: 32589 kb/s\n  Stream #0:0[0x1](und): Video: h264 (High 4:4:4 Predictive) (avc1 / 0x31637661), yuv420p(progressive), 1920x1080, 32586 kb/s, 60 fps, 60 tbr, 60 tbn (default)\n    Metadata:\n      handler_name    : VideoHandler\n      vendor_id       : [0][0][0][0]\n[out#0/mp4 @ 0000020fbb86aac0] Codec AVOption b:a (set bitrate (in bits/s)) has not been used for any stream. The most likely reason is either wrong type (e.g. a video option with no video streams) or that it is a private option of some decoder which was not actually used for any stream.\nStream mapping:\n  Stream #0:0 -> #0:0 (h264 (native) -> hevc (libx265))\nPress [q] to stop, [?] for help\n[libx265 @ 0000020fbc0d00c0] Unknown option: \"aq-mode.\nx265 [info]: HEVC encoder version 4.1+190-8f11c33ac\nx265 [info]: build info [Windows][GCC 15.1.0][64 bit] 10bit\nx265 [info]: using cpu capabilities: MMX2 SSE2Fast LZCNT SSSE3 SSE4.2 AVX FMA3 BMI2 AVX2\nx265 [info]: Main 10 profile, Level-4.1 (Main tier)\nx265 [info]: Thread pool created using 12 threads\nx265 [info]: Slices                              : 1\nx265 [info]: frame threads / pool features       : 3 / wpp(17 rows)\nx265 [info]: Coding QT: max CU size, min CU size : 64 / 8\nx265 [info]: Residual QT: max TU size, max depth : 32 / 1 inter / 1 intra\nx265 [info]: ME / range / subpel / merge         : star / 57 / 3 / 3\nx265 [info]: Keyframe min / max / scenecut / bias  : 25 / 250 / 40 / 5.00 \nx265 [info]: Lookahead / bframes / badapt        : 25 / 4 / 2\nx265 [info]: b-pyramid / weightp / weightb       : 1 / 1 / 0\nx265 [info]: References / ref-limit  cu / depth  : 4 / on / on\nx265 [info]: AQ: mode / str / qg-size / cu-tree  : 2 / 1.0 / 32 / 1\nx265 [info]: Rate Control / qCompress            : ABR-2000 kbps / 0.60\nx265 [info]: VBV/HRD buffer / max-rate / init    : 2000 / 2000 / 0.750\nx265 [info]: tools: rect limit-modes rd=4 psy-rd=2.00 rdoq=2 psy-rdoq=1.00\nx265 [info]: tools: rskip mode=1 signhide tmvp strong-intra-smoothing lslices=4\nx265 [info]: tools: deblock sao dhdr10-info\nOutput #0, mp4, to 'C:\\Users\\Peter\\Desktop\\stuff\\MIUN\\quantitative_research\\video_compression\\compressed_videos\\BVI-HD\\hevc\\2\\CloudsZoom_1920x1080_60fps_hevc.mp4':\n  Metadata:\n    major_brand     : isom\n    minor_version   : 512\n    compatible_brands: isomiso2avc1mp41\n    encoder         : Lavf62.3.100\n  Stream #0:0(und): Video: hevc (hev1 / 0x31766568), yuv420p10le(tv, progressive), 1920x1080, q=2-31, 2000 kb/s, 60 fps, 15360 tbn (default)\n    Metadata:\n      encoder         : Lavc62.11.100 libx265\n      handler_name    : VideoHandler\n      vendor_id       : [0][0][0][0]\n    Side data:\n      cpb: bitrate max/min/avg: 2000000/0/2000000 buffer size: 2000000 vbv_delay: N/A\nframe=    0 fps=0.0 q=0.0 size=       0KiB time=N/A bitrate=N/A speed=N/A elapsed=0:00:00.52    \nframe=    0 fps=0.0 q=0.0 size=       0KiB time=N/A bitrate=N/A speed=N/A elapsed=0:00:01.13    \nframe=    0 fps=0.0 q=0.0 size=       0KiB time=N/A bitrate=N/A speed=N/A elapsed=0:00:01.68    \nframe=    0 fps=0.0 q=0.0 size=       0KiB time=N/A bitrate=N/A speed=N/A elapsed=0:00:02.22    \nframe=    0 fps=0.0 q=0.0 size=       0KiB time=N/A bitrate=N/A speed=N/A elapsed=0:00:02.72    \nframe=    0 fps=0.0 q=0.0 size=       0KiB time=N/A bitrate=N/A speed=N/A elapsed=0:00:03.25    \nframe=    0 fps=0.0 q=0.0 size=       0KiB time=N/A bitrate=N/A speed=N/A elapsed=0:00:03.77    \nframe=    0 fps=0.0 q=0.0 size=       0KiB time=N/A bitrate=N/A speed=N/A elapsed=0:00:04.29    \nframe=    0 fps=0.0 q=0.0 size=       0KiB time=N/A bitrate=N/A speed=N/A elapsed=0:00:04.82    \nframe=    1 fps=0.2 q=33.8 size=       0KiB time=-00:00:00.01 bitrate=N/A speed=N/A elapsed=0:00:05.33    \nframe=    3 fps=0.5 q=41.0 size=       0KiB time=00:00:00.01 bitrate=  21.1kbits/s speed=0.00284x elapsed=0:00:05.87    \nframe=    4 fps=0.6 q=41.0 size=       0KiB time=00:00:00.03 bitrate=  10.6kbits/s speed=0.00521x elapsed=0:00:06.39    \nframe=    5 fps=0.7 q=41.0 size=       0KiB time=00:00:00.05 bitrate=   7.0kbits/s speed=0.00723x elapsed=0:00:06.91    \nframe=    6 fps=0.8 q=41.0 size=       0KiB time=00:00:00.06 bitrate=   5.3kbits/s speed=0.00898x elapsed=0:00:07.42    \nframe=    7 fps=0.9 q=39.6 size=       0KiB time=00:00:00.08 bitrate=   4.2kbits/s speed=0.0105x elapsed=0:00:07.95    \nframe=    8 fps=0.9 q=36.7 size=       0KiB time=00:00:00.10 bitrate=   3.5kbits/s speed=0.0118x elapsed=0:00:08.46    \nframe=    9 fps=1.0 q=38.0 size=       0KiB time=00:00:00.11 bitrate=   3.0kbits/s speed=0.013x elapsed=0:00:08.97    \nframe=    9 fps=0.9 q=38.0 size=       0KiB time=00:00:00.11 bitrate=   3.0kbits/s speed=0.0123x elapsed=0:00:09.49    \nframe=    9 fps=0.9 q=38.0 size=       0KiB time=00:00:00.11 bitrate=   3.0kbits/s speed=0.0116x elapsed=0:00:10.03    \nframe=   10 fps=0.9 q=34.3 size=       0KiB time=00:00:00.13 bitrate=   2.6kbits/s speed=0.0126x elapsed=0:00:10.55    \nframe=   11 fps=1.0 q=34.3 size=       0KiB time=00:00:00.15 bitrate=   2.3kbits/s speed=0.0135x elapsed=0:00:11.08    \nframe=   12 fps=1.0 q=30.1 size=       0KiB time=00:00:00.16 bitrate=   2.1kbits/s speed=0.0144x elapsed=0:00:11.60    \nframe=   13 fps=1.1 q=32.8 size=       0KiB time=00:00:00.18 bitrate=   1.9kbits/s speed=0.0151x elapsed=0:00:12.11    \nframe=   14 fps=1.1 q=33.7 size=       0KiB time=00:00:00.20 bitrate=   1.8kbits/s speed=0.0158x elapsed=0:00:12.63    \nframe=   14 fps=1.1 q=33.7 size=       0KiB time=00:00:00.20 bitrate=   1.8kbits/s speed=0.0152x elapsed=0:00:13.15    \nframe=   14 fps=1.0 q=33.7 size=       0KiB time=00:00:00.20 bitrate=   1.8kbits/s speed=0.0146x elapsed=0:00:13.66    \nframe=   15 fps=1.1 q=29.2 size=       0KiB time=00:00:00.21 bitrate=   1.6kbits/s speed=0.0153x elapsed=0:00:14.18    \nframe=   16 fps=1.1 q=28.6 size=       0KiB time=00:00:00.23 bitrate=   1.5kbits/s speed=0.0159x elapsed=0:00:14.72    \nframe=   17 fps=1.1 q=23.4 size=       0KiB time=00:00:00.25 bitrate=   1.4kbits/s speed=0.0164x elapsed=0:00:15.22    \nframe=   17 fps=1.1 q=23.4 size=       0KiB time=00:00:00.25 bitrate=   1.4kbits/s speed=0.0159x elapsed=0:00:15.74    \nframe=   18 fps=1.1 q=28.0 size=       0KiB time=00:00:00.26 bitrate=   1.3kbits/s speed=0.0164x elapsed=0:00:16.28    \nframe=   18 fps=1.1 q=28.0 size=       0KiB time=00:00:00.26 bitrate=   1.3kbits/s speed=0.0159x elapsed=0:00:16.80    \nframe=   19 fps=1.1 q=29.8 size=       0KiB time=00:00:00.28 bitrate=   1.2kbits/s speed=0.0164x elapsed=0:00:17.32    \nframe=   19 fps=1.1 q=29.8 size=       0KiB time=00:00:00.28 bitrate=   1.2kbits/s speed=0.0159x elapsed=0:00:17.83    \nframe=   19 fps=1.0 q=29.8 size=       0KiB time=00:00:00.28 bitrate=   1.2kbits/s speed=0.0154x elapsed=0:00:18.37    \nframe=   19 fps=1.0 q=29.8 size=       0KiB time=00:00:00.28 bitrate=   1.2kbits/s speed=0.015x elapsed=0:00:18.89    \nframe=   20 fps=1.0 q=23.8 size=       0KiB time=00:00:00.30 bitrate=   1.2kbits/s speed=0.0155x elapsed=0:00:19.40    \nframe=   21 fps=1.1 q=23.0 size=       0KiB time=00:00:00.31 bitrate=   1.1kbits/s speed=0.0159x elapsed=0:00:19.92    \nframe=   21 fps=1.0 q=23.0 size=       0KiB time=00:00:00.31 bitrate=   1.1kbits/s speed=0.0155x elapsed=0:00:20.43    \nframe=   22 fps=1.1 q=19.5 size=       0KiB time=00:00:00.33 bitrate=   1.1kbits/s speed=0.0159x elapsed=0:00:20.94    \nframe=   24 fps=1.1 q=22.7 size=       0KiB time=00:00:00.36 bitrate=   1.0kbits/s speed=0.0171x elapsed=0:00:21.47    \nframe=   24 fps=1.1 q=22.7 size=       0KiB time=00:00:00.36 bitrate=   1.0kbits/s speed=0.0167x elapsed=0:00:21.99    \nframe=   24 fps=1.1 q=22.7 size=       0KiB time=00:00:00.36 bitrate=   1.0kbits/s speed=0.0163x elapsed=0:00:22.52    \nframe=   25 fps=1.1 q=20.7 size=       0KiB time=00:00:00.38 bitrate=   0.9kbits/s speed=0.0166x elapsed=0:00:23.04    \nframe=   25 fps=1.1 q=20.7 size=       0KiB time=00:00:00.38 bitrate=   0.9kbits/s speed=0.0163x elapsed=0:00:23.56    \nframe=   26 fps=1.1 q=20.3 size=       0KiB time=00:00:00.40 bitrate=   0.9kbits/s speed=0.0166x elapsed=0:00:24.07    \nframe=   26 fps=1.1 q=20.3 size=       0KiB time=00:00:00.40 bitrate=   0.9kbits/s speed=0.0163x elapsed=0:00:24.58    \nframe=   26 fps=1.0 q=20.3 size=       0KiB time=00:00:00.40 bitrate=   0.9kbits/s speed=0.0159x elapsed=0:00:25.09    \nframe=   27 fps=1.1 q=18.8 size=       0KiB time=00:00:00.41 bitrate=   0.8kbits/s speed=0.0163x elapsed=0:00:25.61    \nframe=   28 fps=1.1 q=22.0 size=       0KiB time=00:00:00.43 bitrate=   0.8kbits/s speed=0.0166x elapsed=0:00:26.15    \nframe=   28 fps=1.1 q=22.0 size=       0KiB time=00:00:00.43 bitrate=   0.8kbits/s speed=0.0163x elapsed=0:00:26.66    \nframe=   29 fps=1.1 q=20.1 size=       0KiB time=00:00:00.45 bitrate=   0.8kbits/s speed=0.0166x elapsed=0:00:27.18    \nframe=   29 fps=1.0 q=20.1 size=       0KiB time=00:00:00.45 bitrate=   0.8kbits/s speed=0.0162x elapsed=0:00:27.70    \nframe=   29 fps=1.0 q=20.1 size=       0KiB time=00:00:00.45 bitrate=   0.8kbits/s speed=0.0159x elapsed=0:00:28.25    \nframe=   29 fps=1.0 q=20.1 size=       0KiB time=00:00:00.45 bitrate=   0.8kbits/s speed=0.0156x elapsed=0:00:28.77    \nframe=   29 fps=1.0 q=20.1 size=       0KiB time=00:00:00.45 bitrate=   0.8kbits/s speed=0.0154x elapsed=0:00:29.30    \nframe=   29 fps=1.0 q=20.1 size=       0KiB time=00:00:00.45 bitrate=   0.8kbits/s speed=0.0151x elapsed=0:00:29.84    \nframe=   30 fps=1.0 q=19.9 size=       0KiB time=00:00:00.46 bitrate=   0.8kbits/s speed=0.0154x elapsed=0:00:30.38    \nframe=   30 fps=1.0 q=19.9 size=       0KiB time=00:00:00.46 bitrate=   0.8kbits/s speed=0.0151x elapsed=0:00:30.90    \nframe=   31 fps=1.0 q=19.7 size=       0KiB time=00:00:00.48 bitrate=   0.7kbits/s speed=0.0154x elapsed=0:00:31.42    \nframe=   31 fps=1.0 q=19.7 size=       0KiB time=00:00:00.48 bitrate=   0.7kbits/s speed=0.0151x elapsed=0:00:31.94    \nframe=   31 fps=1.0 q=19.7 size=       0KiB time=00:00:00.48 bitrate=   0.7kbits/s speed=0.0149x elapsed=0:00:32.47    \nframe=   31 fps=0.9 q=19.7 size=       0KiB time=00:00:00.48 bitrate=   0.7kbits/s speed=0.0147x elapsed=0:00:32.98    \nframe=   32 fps=1.0 q=16.9 size=       0KiB time=00:00:00.50 bitrate=   0.7kbits/s speed=0.0149x elapsed=0:00:33.53    \nframe=   32 fps=0.9 q=16.9 size=       0KiB time=00:00:00.50 bitrate=   0.7kbits/s speed=0.0147x elapsed=0:00:34.05    \nframe=   33 fps=1.0 q=21.9 size=       0KiB time=00:00:00.51 bitrate=   0.7kbits/s speed=0.0149x elapsed=0:00:34.58    \nframe=   34 fps=1.0 q=21.1 size=       0KiB time=00:00:00.53 bitrate=   0.7kbits/s speed=0.0152x elapsed=0:00:35.11    \nframe=   34 fps=1.0 q=21.1 size=       0KiB time=00:00:00.53 bitrate=   0.7kbits/s speed=0.015x elapsed=0:00:35.63    \nframe=   34 fps=0.9 q=21.1 size=       0KiB time=00:00:00.53 bitrate=   0.7kbits/s speed=0.0148x elapsed=0:00:36.15    \nframe=   35 fps=1.0 q=21.1 size=       0KiB time=00:00:00.55 bitrate=   0.6kbits/s speed=0.015x elapsed=0:00:36.68    \nframe=   35 fps=0.9 q=21.1 size=       0KiB time=00:00:00.55 bitrate=   0.6kbits/s speed=0.0148x elapsed=0:00:37.20    \nframe=   36 fps=1.0 q=20.6 size=       0KiB time=00:00:00.56 bitrate=   0.6kbits/s speed=0.015x elapsed=0:00:37.74    \nframe=   36 fps=0.9 q=20.6 size=       0KiB time=00:00:00.56 bitrate=   0.6kbits/s speed=0.0148x elapsed=0:00:38.27    \nframe=   37 fps=1.0 q=16.2 size=       0KiB time=00:00:00.58 bitrate=   0.6kbits/s speed=0.015x elapsed=0:00:38.79    \nframe=   37 fps=0.9 q=16.2 size=       0KiB time=00:00:00.58 bitrate=   0.6kbits/s speed=0.0148x elapsed=0:00:39.33    \nframe=   37 fps=0.9 q=16.2 size=       0KiB time=00:00:00.58 bitrate=   0.6kbits/s speed=0.0146x elapsed=0:00:39.84    \nframe=   38 fps=0.9 q=20.6 size=       0KiB time=00:00:00.60 bitrate=   0.6kbits/s speed=0.0149x elapsed=0:00:40.37    \nframe=   39 fps=1.0 q=20.6 size=       0KiB time=00:00:00.61 bitrate=   0.6kbits/s speed=0.0151x elapsed=0:00:40.88    \nframe=   39 fps=0.9 q=20.6 size=       0KiB time=00:00:00.61 bitrate=   0.6kbits/s speed=0.0149x elapsed=0:00:41.39    \nframe=   39 fps=0.9 q=20.6 size=       0KiB time=00:00:00.61 bitrate=   0.6kbits/s speed=0.0147x elapsed=0:00:41.92    \nframe=   40 fps=0.9 q=20.1 size=       0KiB time=00:00:00.63 bitrate=   0.6kbits/s speed=0.0149x elapsed=0:00:42.45    \nframe=   41 fps=1.0 q=20.0 size=       0KiB time=00:00:00.65 bitrate=   0.5kbits/s speed=0.0151x elapsed=0:00:42.97    \nframe=   41 fps=0.9 q=20.0 size=       0KiB time=00:00:00.65 bitrate=   0.5kbits/s speed=0.0149x elapsed=0:00:43.49    \nframe=   42 fps=1.0 q=15.8 size=       0KiB time=00:00:00.66 bitrate=   0.5kbits/s speed=0.0151x elapsed=0:00:44.00    \nframe=   42 fps=0.9 q=15.8 size=       0KiB time=00:00:00.66 bitrate=   0.5kbits/s speed=0.015x elapsed=0:00:44.53    \nframe=   43 fps=1.0 q=21.0 size=       0KiB time=00:00:00.68 bitrate=   0.5kbits/s speed=0.0152x elapsed=0:00:45.06    \nframe=   44 fps=1.0 q=20.9 size=       0KiB time=00:00:00.70 bitrate=   0.5kbits/s speed=0.0154x elapsed=0:00:45.57    \nframe=   44 fps=1.0 q=20.9 size=       0KiB time=00:00:00.70 bitrate=   0.5kbits/s speed=0.0152x elapsed=0:00:46.09    \nframe=   44 fps=0.9 q=20.9 size=       0KiB time=00:00:00.70 bitrate=   0.5kbits/s speed=0.015x elapsed=0:00:46.62    \nframe=   45 fps=1.0 q=19.8 size=       0KiB time=00:00:00.71 bitrate=   0.5kbits/s speed=0.0152x elapsed=0:00:47.15    \nframe=   45 fps=0.9 q=19.8 size=       0KiB time=00:00:00.71 bitrate=   0.5kbits/s speed=0.015x elapsed=0:00:47.66    \nframe=   45 fps=0.9 q=19.8 size=       0KiB time=00:00:00.71 bitrate=   0.5kbits/s speed=0.0149x elapsed=0:00:48.19    \nframe=   46 fps=0.9 q=20.8 size=       0KiB time=00:00:00.73 bitrate=   0.5kbits/s speed=0.0151x elapsed=0:00:48.71    \nframe=   47 fps=1.0 q=15.6 size=       0KiB time=00:00:00.75 bitrate=   0.5kbits/s speed=0.0152x elapsed=0:00:49.23    \nframe=   48 fps=1.0 q=20.6 size=       0KiB time=00:00:00.76 bitrate=   0.5kbits/s speed=0.0154x elapsed=0:00:49.75    \nframe=   48 fps=1.0 q=20.6 size=       0KiB time=00:00:00.76 bitrate=   0.5kbits/s speed=0.0152x elapsed=0:00:50.27    \nframe=   48 fps=0.9 q=20.6 size=       0KiB time=00:00:00.76 bitrate=   0.5kbits/s speed=0.0151x elapsed=0:00:50.81    \nframe=   49 fps=1.0 q=20.6 size=       0KiB time=00:00:00.78 bitrate=   0.4kbits/s speed=0.0153x elapsed=0:00:51.34    \nframe=   49 fps=0.9 q=20.6 size=       0KiB time=00:00:00.78 bitrate=   0.4kbits/s speed=0.0151x elapsed=0:00:51.87    \nframe=   49 fps=0.9 q=20.6 size=       0KiB time=00:00:00.78 bitrate=   0.4kbits/s speed=0.0149x elapsed=0:00:52.41    \nframe=   49 fps=0.9 q=20.6 size=       0KiB time=00:00:00.78 bitrate=   0.4kbits/s speed=0.0148x elapsed=0:00:52.93    \nframe=   50 fps=0.9 q=20.2 size=       0KiB time=00:00:00.80 bitrate=   0.4kbits/s speed=0.015x elapsed=0:00:53.45    \nframe=   51 fps=0.9 q=20.1 size=       0KiB time=00:00:00.81 bitrate=   0.4kbits/s speed=0.0151x elapsed=0:00:53.96    \nframe=   53 fps=1.0 q=19.9 size=       0KiB time=00:00:00.85 bitrate=   0.4kbits/s speed=0.0156x elapsed=0:00:54.48    \nframe=   54 fps=1.0 q=21.8 size=       0KiB time=00:00:00.86 bitrate=   0.4kbits/s speed=0.0158x elapsed=0:00:54.99    \nframe=   54 fps=1.0 q=21.8 size=       0KiB time=00:00:00.86 bitrate=   0.4kbits/s speed=0.0156x elapsed=0:00:55.51    \nframe=   56 fps=1.0 q=20.7 size=       0KiB time=00:00:00.90 bitrate=   0.4kbits/s speed=0.0161x elapsed=0:00:56.03    \nframe=   57 fps=1.0 q=15.5 size=       0KiB time=00:00:00.91 bitrate=   0.4kbits/s speed=0.0162x elapsed=0:00:56.53    \nframe=   59 fps=1.0 q=21.4 size=       0KiB time=00:00:00.95 bitrate=   0.4kbits/s speed=0.0166x elapsed=0:00:57.05    \nframe=   59 fps=1.0 q=21.4 size=       0KiB time=00:00:00.95 bitrate=   0.4kbits/s speed=0.0165x elapsed=0:00:57.57    \nframe=   60 fps=1.0 q=21.5 size=       0KiB time=00:00:00.96 bitrate=   0.4kbits/s speed=0.0166x elapsed=0:00:58.08    \nframe=   61 fps=1.0 q=21.6 size=       0KiB time=00:00:00.98 bitrate=   0.4kbits/s speed=0.0168x elapsed=0:00:58.60    \nframe=   63 fps=1.1 q=21.3 size=       0KiB time=00:00:01.01 bitrate=   0.3kbits/s speed=0.0172x elapsed=0:00:59.12    \nframe=   64 fps=1.1 q=21.8 size=       0KiB time=00:00:01.03 bitrate=   0.3kbits/s speed=0.0173x elapsed=0:00:59.63    \nframe=   65 fps=1.1 q=21.4 size=       0KiB time=00:00:01.05 bitrate=   0.3kbits/s speed=0.0175x elapsed=0:01:00.15    \nframe=   66 fps=1.1 q=20.6 size=       0KiB time=00:00:01.06 bitrate=   0.3kbits/s speed=0.0176x elapsed=0:01:00.67    \nframe=   68 fps=1.1 q=20.6 size=       0KiB time=00:00:01.10 bitrate=   0.3kbits/s speed=0.018x elapsed=0:01:01.17    \nframe=   69 fps=1.1 q=21.7 size=       0KiB time=00:00:01.11 bitrate=   0.3kbits/s speed=0.0181x elapsed=0:01:01.69    \nframe=   70 fps=1.1 q=20.3 size=       0KiB time=00:00:01.13 bitrate=   0.3kbits/s speed=0.0182x elapsed=0:01:02.22    \nframe=   71 fps=1.1 q=21.3 size=       0KiB time=00:00:01.15 bitrate=   0.3kbits/s speed=0.0183x elapsed=0:01:02.72    \nframe=   72 fps=1.1 q=15.5 size=       0KiB time=00:00:01.16 bitrate=   0.3kbits/s speed=0.0184x elapsed=0:01:03.24    \nframe=   73 fps=1.1 q=19.8 size=       0KiB time=00:00:01.18 bitrate=   0.3kbits/s speed=0.0186x elapsed=0:01:03.75    \nframe=   74 fps=1.2 q=21.6 size=       0KiB time=00:00:01.20 bitrate=   0.3kbits/s speed=0.0187x elapsed=0:01:04.27    \nframe=   75 fps=1.2 q=21.1 size=     256KiB time=00:00:01.21 bitrate=1724.0kbits/s speed=0.0188x elapsed=0:01:04.79    \nframe=   76 fps=1.2 q=20.7 size=     256KiB time=00:00:01.23 bitrate=1700.7kbits/s speed=0.0189x elapsed=0:01:05.30    \nframe=   78 fps=1.2 q=19.8 size=     256KiB time=00:00:01.26 bitrate=1655.9kbits/s speed=0.0192x elapsed=0:01:05.82    \nframe=   79 fps=1.2 q=21.5 size=     256KiB time=00:00:01.28 bitrate=1634.4kbits/s speed=0.0193x elapsed=0:01:06.34    \nframe=   79 fps=1.2 q=21.5 size=     256KiB time=00:00:01.28 bitrate=1634.4kbits/s speed=0.0192x elapsed=0:01:06.85    \nframe=   81 fps=1.2 q=21.2 size=     256KiB time=00:00:01.31 bitrate=1593.0kbits/s speed=0.0195x elapsed=0:01:07.37    \nframe=   81 fps=1.2 q=21.2 size=     256KiB time=00:00:01.31 bitrate=1593.0kbits/s speed=0.0194x elapsed=0:01:07.89    \nframe=   83 fps=1.2 q=20.1 size=     256KiB time=00:00:01.35 bitrate=1553.7kbits/s speed=0.0197x elapsed=0:01:08.42    \nframe=   84 fps=1.2 q=22.0 size=     256KiB time=00:00:01.36 bitrate=1534.8kbits/s speed=0.0198x elapsed=0:01:08.94    \nframe=   84 fps=1.2 q=22.0 size=     256KiB time=00:00:01.36 bitrate=1534.8kbits/s speed=0.0197x elapsed=0:01:09.45    \nframe=   84 fps=1.2 q=22.0 size=     256KiB time=00:00:01.36 bitrate=1534.8kbits/s speed=0.0195x elapsed=0:01:09.98    \nframe=   84 fps=1.2 q=22.0 size=     256KiB time=00:00:01.36 bitrate=1534.8kbits/s speed=0.0194x elapsed=0:01:10.51    \nframe=   85 fps=1.2 q=21.4 size=     256KiB time=00:00:01.38 bitrate=1516.3kbits/s speed=0.0195x elapsed=0:01:11.03    \nframe=   85 fps=1.2 q=21.4 size=     256KiB time=00:00:01.38 bitrate=1516.3kbits/s speed=0.0193x elapsed=0:01:11.55    \nframe=   87 fps=1.2 q=15.2 size=     256KiB time=00:00:01.41 bitrate=1480.6kbits/s speed=0.0197x elapsed=0:01:12.08    \nframe=   87 fps=1.2 q=15.2 size=     256KiB time=00:00:01.41 bitrate=1480.6kbits/s speed=0.0195x elapsed=0:01:12.58    \nframe=   88 fps=1.2 q=20.3 size=     256KiB time=00:00:01.43 bitrate=1463.4kbits/s speed=0.0196x elapsed=0:01:13.11    \nframe=   89 fps=1.2 q=22.6 size=     256KiB time=00:00:01.45 bitrate=1446.6kbits/s speed=0.0197x elapsed=0:01:13.63    \nframe=   89 fps=1.2 q=22.6 size=     256KiB time=00:00:01.45 bitrate=1446.6kbits/s speed=0.0195x elapsed=0:01:14.16    \nframe=   89 fps=1.2 q=22.6 size=     256KiB time=00:00:01.45 bitrate=1446.6kbits/s speed=0.0194x elapsed=0:01:14.69    \nframe=   90 fps=1.2 q=21.1 size=     256KiB time=00:00:01.46 bitrate=1430.1kbits/s speed=0.0195x elapsed=0:01:15.22    \nframe=   91 fps=1.2 q=21.5 size=     256KiB time=00:00:01.48 bitrate=1414.0kbits/s speed=0.0196x elapsed=0:01:15.72    \nframe=   92 fps=1.2 q=15.8 size=     256KiB time=00:00:01.50 bitrate=1398.3kbits/s speed=0.0197x elapsed=0:01:16.24    \nframe=   93 fps=1.2 q=20.3 size=     256KiB time=00:00:01.51 bitrate=1383.0kbits/s speed=0.0198x elapsed=0:01:16.76    \nframe=   93 fps=1.2 q=20.3 size=     256KiB time=00:00:01.51 bitrate=1383.0kbits/s speed=0.0196x elapsed=0:01:17.28    \nframe=   94 fps=1.2 q=21.8 size=     256KiB time=00:00:01.53 bitrate=1367.9kbits/s speed=0.0197x elapsed=0:01:17.80    \nframe=   94 fps=1.2 q=21.8 size=     256KiB time=00:00:01.53 bitrate=1367.9kbits/s speed=0.0196x elapsed=0:01:18.32    \nframe=   95 fps=1.2 q=22.2 size=     256KiB time=00:00:01.55 bitrate=1353.2kbits/s speed=0.0197x elapsed=0:01:18.83    \nframe=   95 fps=1.2 q=22.2 size=     256KiB time=00:00:01.55 bitrate=1353.2kbits/s speed=0.0195x elapsed=0:01:19.35    \nframe=   96 fps=1.2 q=22.6 size=     256KiB time=00:00:01.56 bitrate=1338.8kbits/s speed=0.0196x elapsed=0:01:19.86    \nframe=   97 fps=1.2 q=15.8 size=     256KiB time=00:00:01.58 bitrate=1324.7kbits/s speed=0.0197x elapsed=0:01:20.38    \nframe=   98 fps=1.2 q=20.8 size=     256KiB time=00:00:01.60 bitrate=1310.9kbits/s speed=0.0198x elapsed=0:01:20.90    \nframe=   99 fps=1.2 q=23.0 size=     256KiB time=00:00:01.61 bitrate=1297.4kbits/s speed=0.0199x elapsed=0:01:21.41    \nframe=   99 fps=1.2 q=23.0 size=     256KiB time=00:00:01.61 bitrate=1297.4kbits/s speed=0.0197x elapsed=0:01:21.94    \nframe=  100 fps=1.2 q=21.9 size=     256KiB time=00:00:01.63 bitrate=1284.2kbits/s speed=0.0198x elapsed=0:01:22.47    \nframe=  100 fps=1.2 q=21.9 size=     256KiB time=00:00:01.63 bitrate=1284.2kbits/s speed=0.0197x elapsed=0:01:23.00    \nframe=  102 fps=1.2 q=15.9 size=     256KiB time=00:00:01.66 bitrate=1258.5kbits/s speed=0.02x elapsed=0:01:23.53    \nframe=  103 fps=1.2 q=20.8 size=     256KiB time=00:00:01.68 bitrate=1246.0kbits/s speed=0.02x elapsed=0:01:24.05    \nframe=  103 fps=1.2 q=20.8 size=     256KiB time=00:00:01.68 bitrate=1246.0kbits/s speed=0.0199x elapsed=0:01:24.57    \nframe=  104 fps=1.2 q=22.6 size=     256KiB time=00:00:01.70 bitrate=1233.8kbits/s speed=0.02x elapsed=0:01:25.08    \nframe=  104 fps=1.2 q=22.6 size=     256KiB time=00:00:01.70 bitrate=1233.8kbits/s speed=0.0199x elapsed=0:01:25.59    \nframe=  105 fps=1.2 q=22.7 size=     256KiB time=00:00:01.71 bitrate=1221.8kbits/s speed=0.0199x elapsed=0:01:26.12    \nframe=  107 fps=1.2 q=15.8 size=     256KiB time=00:00:01.75 bitrate=1198.6kbits/s speed=0.0202x elapsed=0:01:26.66    \nframe=  108 fps=1.2 q=20.8 size=     256KiB time=00:00:01.76 bitrate=1187.3kbits/s speed=0.0203x elapsed=0:01:27.20    \nframe=  109 fps=1.2 q=22.2 size=     256KiB time=00:00:01.78 bitrate=1176.2kbits/s speed=0.0203x elapsed=0:01:27.71    \nframe=  109 fps=1.2 q=22.2 size=     256KiB time=00:00:01.78 bitrate=1176.2kbits/s speed=0.0202x elapsed=0:01:28.23    \nframe=  109 fps=1.2 q=22.2 size=     256KiB time=00:00:01.78 bitrate=1176.2kbits/s speed=0.0201x elapsed=0:01:28.75    \nframe=  110 fps=1.2 q=21.9 size=     256KiB time=00:00:01.80 bitrate=1165.3kbits/s speed=0.0202x elapsed=0:01:29.28    \nframe=  111 fps=1.2 q=22.0 size=     256KiB time=00:00:01.81 bitrate=1154.6kbits/s speed=0.0202x elapsed=0:01:29.81    \nframe=  111 fps=1.2 q=22.0 size=     256KiB time=00:00:01.81 bitrate=1154.6kbits/s speed=0.0201x elapsed=0:01:30.31    \nframe=  112 fps=1.2 q=15.4 size=     256KiB time=00:00:01.83 bitrate=1144.1kbits/s speed=0.0202x elapsed=0:01:30.85    \nframe=  112 fps=1.2 q=15.4 size=     256KiB time=00:00:01.83 bitrate=1144.1kbits/s speed=0.0201x elapsed=0:01:31.38    \nframe=  114 fps=1.2 q=23.1 size=     256KiB time=00:00:01.86 bitrate=1123.7kbits/s speed=0.0203x elapsed=0:01:31.92    \nframe=  114 fps=1.2 q=23.1 size=     256KiB time=00:00:01.86 bitrate=1123.7kbits/s speed=0.0202x elapsed=0:01:32.46    \nframe=  114 fps=1.2 q=23.1 size=     256KiB time=00:00:01.86 bitrate=1123.7kbits/s speed=0.0201x elapsed=0:01:32.97    \nframe=  114 fps=1.2 q=23.1 size=     256KiB time=00:00:01.86 bitrate=1123.7kbits/s speed=0.02x elapsed=0:01:33.48    \nframe=  114 fps=1.2 q=23.1 size=     256KiB time=00:00:01.86 bitrate=1123.7kbits/s speed=0.0199x elapsed=0:01:34.01    \nframe=  115 fps=1.2 q=21.7 size=     256KiB time=00:00:01.88 bitrate=1113.7kbits/s speed=0.0199x elapsed=0:01:34.53    \nframe=  116 fps=1.2 q=22.9 size=     256KiB time=00:00:01.90 bitrate=1103.9kbits/s speed=0.02x elapsed=0:01:35.05    \nframe=  116 fps=1.2 q=22.9 size=     256KiB time=00:00:01.90 bitrate=1103.9kbits/s speed=0.0199x elapsed=0:01:35.59    \nframe=  117 fps=1.2 q=15.6 size=     256KiB time=00:00:01.91 bitrate=1094.3kbits/s speed=0.0199x elapsed=0:01:36.10    \nframe=  118 fps=1.2 q=20.9 size=     256KiB time=00:00:01.93 bitrate=1084.9kbits/s speed=0.02x elapsed=0:01:36.61    \nframe=  118 fps=1.2 q=20.9 size=     256KiB time=00:00:01.93 bitrate=1084.9kbits/s speed=0.0199x elapsed=0:01:37.13    \nframe=  119 fps=1.2 q=22.3 size=     256KiB time=00:00:01.95 bitrate=1075.6kbits/s speed=0.02x elapsed=0:01:37.68    \nframe=  120 fps=1.2 q=21.6 size=     256KiB time=00:00:01.96 bitrate=1066.5kbits/s speed=0.02x elapsed=0:01:38.22    \nframe=  120 fps=1.2 q=21.6 size=     256KiB time=00:00:01.96 bitrate=1066.5kbits/s speed=0.0199x elapsed=0:01:38.74    \nframe=  120 fps=1.2 q=21.6 size=     256KiB time=00:00:01.96 bitrate=1066.5kbits/s speed=0.0198x elapsed=0:01:39.27    \nframe=  121 fps=1.2 q=22.4 size=     256KiB time=00:00:01.98 bitrate=1057.6kbits/s speed=0.0199x elapsed=0:01:39.79    \nframe=  121 fps=1.2 q=22.4 size=     256KiB time=00:00:01.98 bitrate=1057.6kbits/s speed=0.0198x elapsed=0:01:40.30    \nframe=  122 fps=1.2 q=15.5 size=     256KiB time=00:00:02.00 bitrate=1048.8kbits/s speed=0.0198x elapsed=0:01:40.82    \nframe=  124 fps=1.2 q=21.6 size=     256KiB time=00:00:02.03 bitrate=1031.6kbits/s speed=0.0201x elapsed=0:01:41.36    \nframe=  124 fps=1.2 q=21.6 size=     256KiB time=00:00:02.03 bitrate=1031.6kbits/s speed=0.02x elapsed=0:01:41.89    \nframe=  125 fps=1.2 q=22.2 size=     256KiB time=00:00:02.05 bitrate=1023.2kbits/s speed=0.02x elapsed=0:01:42.43    \nframe=  125 fps=1.2 q=22.2 size=     256KiB time=00:00:02.05 bitrate=1023.2kbits/s speed=0.0199x elapsed=0:01:42.98    \nframe=  126 fps=1.2 q=21.2 size=     256KiB time=00:00:02.06 bitrate=1014.9kbits/s speed=0.02x elapsed=0:01:43.51    \nframe=  126 fps=1.2 q=21.2 size=     256KiB time=00:00:02.06 bitrate=1014.9kbits/s speed=0.0199x elapsed=0:01:44.03    \nframe=  127 fps=1.2 q=15.9 size=     256KiB time=00:00:02.08 bitrate=1006.8kbits/s speed=0.0199x elapsed=0:01:44.57    \nframe=  127 fps=1.2 q=15.9 size=     256KiB time=00:00:02.08 bitrate=1006.8kbits/s speed=0.0198x elapsed=0:01:45.09    \nframe=  128 fps=1.2 q=20.5 size=     256KiB time=00:00:02.10 bitrate= 998.8kbits/s speed=0.0199x elapsed=0:01:45.62    \nframe=  128 fps=1.2 q=20.5 size=     256KiB time=00:00:02.10 bitrate= 998.8kbits/s speed=0.0198x elapsed=0:01:46.17    \nframe=  129 fps=1.2 q=22.0 size=     256KiB time=00:00:02.11 bitrate= 990.9kbits/s speed=0.0198x elapsed=0:01:46.70    \nframe=  129 fps=1.2 q=22.0 size=     256KiB time=00:00:02.11 bitrate= 990.9kbits/s speed=0.0197x elapsed=0:01:47.25    \nframe=  129 fps=1.2 q=22.0 size=     256KiB time=00:00:02.11 bitrate= 990.9kbits/s speed=0.0196x elapsed=0:01:47.77    \nframe=  130 fps=1.2 q=22.5 size=     256KiB time=00:00:02.13 bitrate= 983.2kbits/s speed=0.0197x elapsed=0:01:48.30    \nframe=  130 fps=1.2 q=22.5 size=     256KiB time=00:00:02.13 bitrate= 983.2kbits/s speed=0.0196x elapsed=0:01:48.84    \nframe=  131 fps=1.2 q=21.9 size=     256KiB time=00:00:02.15 bitrate= 975.6kbits/s speed=0.0197x elapsed=0:01:49.37    \nframe=  131 fps=1.2 q=21.9 size=     256KiB time=00:00:02.15 bitrate= 975.6kbits/s speed=0.0196x elapsed=0:01:49.90    \nframe=  132 fps=1.2 q=15.0 size=     256KiB time=00:00:02.16 bitrate= 968.1kbits/s speed=0.0196x elapsed=0:01:50.41    \nframe=  133 fps=1.2 q=20.6 size=     512KiB time=00:00:02.18 bitrate=1921.2kbits/s speed=0.0197x elapsed=0:01:50.92    \nframe=  133 fps=1.2 q=20.6 size=     512KiB time=00:00:02.18 bitrate=1921.2kbits/s speed=0.0196x elapsed=0:01:51.46    \nframe=  134 fps=1.2 q=22.9 size=     512KiB time=00:00:02.20 bitrate=1906.7kbits/s speed=0.0196x elapsed=0:01:51.99    \nframe=  135 fps=1.2 q=22.1 size=     512KiB time=00:00:02.21 bitrate=1892.3kbits/s speed=0.0197x elapsed=0:01:52.51    \nframe=  135 fps=1.2 q=22.1 size=     512KiB time=00:00:02.21 bitrate=1892.3kbits/s speed=0.0196x elapsed=0:01:53.04    \nframe=  136 fps=1.2 q=22.4 size=     512KiB time=00:00:02.23 bitrate=1878.2kbits/s speed=0.0197x elapsed=0:01:53.58    \nframe=  137 fps=1.2 q=15.3 size=     512KiB time=00:00:02.25 bitrate=1864.3kbits/s speed=0.0197x elapsed=0:01:54.10    \nframe=  138 fps=1.2 q=20.6 size=     512KiB time=00:00:02.26 bitrate=1850.6kbits/s speed=0.0198x elapsed=0:01:54.61    \nframe=  139 fps=1.2 q=22.9 size=     512KiB time=00:00:02.28 bitrate=1837.1kbits/s speed=0.0198x elapsed=0:01:55.14    \nframe=  139 fps=1.2 q=22.9 size=     512KiB time=00:00:02.28 bitrate=1837.1kbits/s speed=0.0197x elapsed=0:01:55.67    \nframe=  140 fps=1.2 q=22.8 size=     512KiB time=00:00:02.30 bitrate=1823.8kbits/s speed=0.0198x elapsed=0:01:56.19    \nframe=  141 fps=1.2 q=22.6 size=     512KiB time=00:00:02.31 bitrate=1810.6kbits/s speed=0.0198x elapsed=0:01:56.71    \nframe=  142 fps=1.2 q=15.8 size=     512KiB time=00:00:02.33 bitrate=1797.7kbits/s speed=0.0199x elapsed=0:01:57.23    \nframe=  142 fps=1.2 q=15.8 size=     512KiB time=00:00:02.33 bitrate=1797.7kbits/s speed=0.0198x elapsed=0:01:57.75    \nframe=  142 fps=1.2 q=15.8 size=     512KiB time=00:00:02.33 bitrate=1797.7kbits/s speed=0.0197x elapsed=0:01:58.28    \nframe=  142 fps=1.2 q=15.8 size=     512KiB time=00:00:02.33 bitrate=1797.7kbits/s speed=0.0196x elapsed=0:01:58.83    \nframe=  142 fps=1.2 q=15.8 size=     512KiB time=00:00:02.33 bitrate=1797.7kbits/s speed=0.0195x elapsed=0:01:59.35    \nframe=  142 fps=1.2 q=15.8 size=     512KiB time=00:00:02.33 bitrate=1797.7kbits/s speed=0.0195x elapsed=0:01:59.87    \nframe=  144 fps=1.2 q=24.2 size=     512KiB time=00:00:02.36 bitrate=1772.4kbits/s speed=0.0197x elapsed=0:02:00.40    \nframe=  144 fps=1.2 q=24.2 size=     512KiB time=00:00:02.36 bitrate=1772.4kbits/s speed=0.0196x elapsed=0:02:00.91    \nframe=  146 fps=1.2 q=22.2 size=     512KiB time=00:00:02.40 bitrate=1747.8kbits/s speed=0.0198x elapsed=0:02:01.43    \nframe=  148 fps=1.2 q=20.5 size=     512KiB time=00:00:02.43 bitrate=1723.8kbits/s speed=0.02x elapsed=0:02:01.94    \nframe=  149 fps=1.2 q=22.6 size=     512KiB time=00:00:02.45 bitrate=1712.1kbits/s speed=0.02x elapsed=0:02:02.47    \nframe=  151 fps=1.2 q=22.4 size=     512KiB time=00:00:02.48 bitrate=1689.1kbits/s speed=0.0202x elapsed=0:02:02.97    \nframe=  152 fps=1.2 q=15.6 size=     512KiB time=00:00:02.50 bitrate=1677.9kbits/s speed=0.0202x elapsed=0:02:03.49    \nframe=  154 fps=1.2 q=23.3 size=     512KiB time=00:00:02.53 bitrate=1655.8kbits/s speed=0.0204x elapsed=0:02:04.01    \nframe=  155 fps=1.2 q=21.3 size=     512KiB time=00:00:02.55 bitrate=1645.0kbits/s speed=0.0205x elapsed=0:02:04.52    \nframe=  156 fps=1.2 q=21.8 size=     512KiB time=00:00:02.56 bitrate=1634.3kbits/s speed=0.0205x elapsed=0:02:05.04    \nframe=  158 fps=1.3 q=20.8 size=     512KiB time=00:00:02.60 bitrate=1613.3kbits/s speed=0.0207x elapsed=0:02:05.56    \nframe=  160 fps=1.3 q=23.1 size=     512KiB time=00:00:02.63 bitrate=1592.9kbits/s speed=0.0209x elapsed=0:02:06.06    \nframe=  161 fps=1.3 q=22.5 size=     512KiB time=00:00:02.65 bitrate=1582.9kbits/s speed=0.0209x elapsed=0:02:06.59    \nframe=  162 fps=1.3 q=15.6 size=     512KiB time=00:00:02.66 bitrate=1573.0kbits/s speed=0.021x elapsed=0:02:07.11    \nframe=  164 fps=1.3 q=22.5 size=     512KiB time=00:00:02.70 bitrate=1553.6kbits/s speed=0.0212x elapsed=0:02:07.63    \nframe=  165 fps=1.3 q=22.4 size=     512KiB time=00:00:02.71 bitrate=1544.0kbits/s speed=0.0212x elapsed=0:02:08.15    \nframe=  167 fps=1.3 q=15.8 size=     512KiB time=00:00:02.75 bitrate=1525.3kbits/s speed=0.0214x elapsed=0:02:08.67    \nframe=  168 fps=1.3 q=20.9 size=     512KiB time=00:00:02.76 bitrate=1516.1kbits/s speed=0.0214x elapsed=0:02:09.19    \nframe=  170 fps=1.3 q=22.0 size=     512KiB time=00:00:02.80 bitrate=1498.1kbits/s speed=0.0216x elapsed=0:02:09.69    \nframe=  171 fps=1.3 q=22.4 size=     512KiB time=00:00:02.81 bitrate=1489.2kbits/s speed=0.0216x elapsed=0:02:10.21    \nframe=  172 fps=1.3 q=15.4 size=     512KiB time=00:00:02.83 bitrate=1480.5kbits/s speed=0.0217x elapsed=0:02:10.73    \nframe=  174 fps=1.3 q=22.3 size=     512KiB time=00:00:02.86 bitrate=1463.3kbits/s speed=0.0218x elapsed=0:02:11.24    \nframe=  174 fps=1.3 q=22.3 size=     512KiB time=00:00:02.86 bitrate=1463.3kbits/s speed=0.0218x elapsed=0:02:11.75    \nframe=  176 fps=1.3 q=23.1 size=     512KiB time=00:00:02.90 bitrate=1446.4kbits/s speed=0.0219x elapsed=0:02:12.27    \nframe=  176 fps=1.3 q=23.1 size=     512KiB time=00:00:02.90 bitrate=1446.4kbits/s speed=0.0218x elapsed=0:02:12.80    \nframe=  176 fps=1.3 q=23.1 size=     512KiB time=00:00:02.90 bitrate=1446.4kbits/s speed=0.0218x elapsed=0:02:13.32    \nframe=  177 fps=1.3 q=15.4 size=     512KiB time=00:00:02.91 bitrate=1438.2kbits/s speed=0.0218x elapsed=0:02:13.84    \nframe=  178 fps=1.3 q=20.3 size=     512KiB time=00:00:02.93 bitrate=1430.0kbits/s speed=0.0218x elapsed=0:02:14.36    \nframe=  179 fps=1.3 q=22.7 size=     512KiB time=00:00:02.95 bitrate=1421.9kbits/s speed=0.0219x elapsed=0:02:14.90    \nframe=  180 fps=1.3 q=22.3 size=     512KiB time=00:00:02.96 bitrate=1413.9kbits/s speed=0.0219x elapsed=0:02:15.44    \nframe=  181 fps=1.3 q=22.2 size=     512KiB time=00:00:02.98 bitrate=1406.0kbits/s speed=0.0219x elapsed=0:02:15.96    \nframe=  181 fps=1.3 q=22.2 size=     512KiB time=00:00:02.98 bitrate=1406.0kbits/s speed=0.0219x elapsed=0:02:16.49    \nframe=  182 fps=1.3 q=15.4 size=     512KiB time=00:00:03.00 bitrate=1398.2kbits/s speed=0.0219x elapsed=0:02:17.02    \nframe=  182 fps=1.3 q=15.4 size=     512KiB time=00:00:03.00 bitrate=1398.2kbits/s speed=0.0218x elapsed=0:02:17.53    \nframe=  184 fps=1.3 q=23.2 size=     512KiB time=00:00:03.03 bitrate=1382.9kbits/s speed=0.022x elapsed=0:02:18.05    \nframe=  184 fps=1.3 q=23.2 size=     512KiB time=00:00:03.03 bitrate=1382.9kbits/s speed=0.0219x elapsed=0:02:18.59    \nframe=  185 fps=1.3 q=22.3 size=     512KiB time=00:00:03.05 bitrate=1375.3kbits/s speed=0.0219x elapsed=0:02:19.12    \nframe=  186 fps=1.3 q=22.8 size=     512KiB time=00:00:03.06 bitrate=1367.8kbits/s speed=0.022x elapsed=0:02:19.67    \nframe=  187 fps=1.3 q=15.4 size=     512KiB time=00:00:03.08 bitrate=1360.4kbits/s speed=0.022x elapsed=0:02:20.18    \nframe=  187 fps=1.3 q=15.4 size=     512KiB time=00:00:03.08 bitrate=1360.4kbits/s speed=0.0219x elapsed=0:02:20.70    \nframe=  188 fps=1.3 q=21.1 size=     512KiB time=00:00:03.10 bitrate=1353.1kbits/s speed=0.022x elapsed=0:02:21.20    \nframe=  189 fps=1.3 q=23.0 size=     512KiB time=00:00:03.11 bitrate=1345.9kbits/s speed=0.022x elapsed=0:02:21.73    \nframe=  190 fps=1.3 q=21.9 size=     512KiB time=00:00:03.13 bitrate=1338.7kbits/s speed=0.022x elapsed=0:02:22.27    \nframe=  191 fps=1.3 q=22.6 size=     512KiB time=00:00:03.15 bitrate=1331.6kbits/s speed=0.0221x elapsed=0:02:22.79    \nframe=  191 fps=1.3 q=22.6 size=     512KiB time=00:00:03.15 bitrate=1331.6kbits/s speed=0.022x elapsed=0:02:23.33    \nframe=  192 fps=1.3 q=15.1 size=     512KiB time=00:00:03.16 bitrate=1324.6kbits/s speed=0.022x elapsed=0:02:23.86    \nframe=  192 fps=1.3 q=15.1 size=     512KiB time=00:00:03.16 bitrate=1324.6kbits/s speed=0.0219x elapsed=0:02:24.37    \nframe=  193 fps=1.3 q=21.0 size=     512KiB time=00:00:03.18 bitrate=1317.7kbits/s speed=0.022x elapsed=0:02:24.90    \nframe=  195 fps=1.3 q=23.4 size=     512KiB time=00:00:03.20 bitrate=1310.8kbits/s speed=0.022x elapsed=0:02:25.45    \nframe=  195 fps=1.3 q=23.4 size=     512KiB time=00:00:03.21 bitrate=1304.0kbits/s speed=0.022x elapsed=0:02:26.01    \nframe=  196 fps=1.3 q=22.8 size=     512KiB time=00:00:03.23 bitrate=1297.3kbits/s speed=0.0221x elapsed=0:02:26.55    \nframe=  196 fps=1.3 q=22.8 size=     512KiB time=00:00:03.23 bitrate=1297.3kbits/s speed=0.022x elapsed=0:02:27.09    \nframe=  196 fps=1.3 q=22.8 size=     512KiB time=00:00:03.23 bitrate=1297.3kbits/s speed=0.0219x elapsed=0:02:27.62    \nframe=  197 fps=1.3 q=15.2 size=     512KiB time=00:00:03.25 bitrate=1290.7kbits/s speed=0.0219x elapsed=0:02:28.15    \nframe=  198 fps=1.3 q=20.7 size=     768KiB time=00:00:03.26 bitrate=1926.1kbits/s speed=0.022x elapsed=0:02:28.67    \nframe=  198 fps=1.3 q=20.7 size=     768KiB time=00:00:03.26 bitrate=1926.1kbits/s speed=0.0219x elapsed=0:02:29.18    \nframe=  198 fps=1.3 q=20.7 size=     768KiB time=00:00:03.26 bitrate=1926.1kbits/s speed=0.0218x elapsed=0:02:29.72    \nframe=  199 fps=1.3 q=22.4 size=     768KiB time=00:00:03.28 bitrate=1916.3kbits/s speed=0.0219x elapsed=0:02:30.25    \nframe=  199 fps=1.3 q=22.4 size=     768KiB time=00:00:03.28 bitrate=1916.3kbits/s speed=0.0218x elapsed=0:02:30.79    \nframe=  199 fps=1.3 q=22.4 size=     768KiB time=00:00:03.28 bitrate=1916.3kbits/s speed=0.0217x elapsed=0:02:31.34    \nframe=  201 fps=1.3 q=21.3 size=     768KiB time=00:00:03.31 bitrate=1897.0kbits/s speed=0.0218x elapsed=0:02:31.86    \nframe=  201 fps=1.3 q=21.3 size=     768KiB time=00:00:03.31 bitrate=1897.0kbits/s speed=0.0218x elapsed=0:02:32.42    \nframe=  201 fps=1.3 q=21.3 size=     768KiB time=00:00:03.31 bitrate=1897.0kbits/s speed=0.0217x elapsed=0:02:33.02    \nframe=  201 fps=1.3 q=21.3 size=     768KiB time=00:00:03.31 bitrate=1897.0kbits/s speed=0.0216x elapsed=0:02:33.65    \nframe=  201 fps=1.3 q=21.3 size=     768KiB time=00:00:03.31 bitrate=1897.0kbits/s speed=0.0215x elapsed=0:02:34.22    \nframe=  201 fps=1.3 q=21.3 size=     768KiB time=00:00:03.31 bitrate=1897.0kbits/s speed=0.0214x elapsed=0:02:34.81    \nframe=  201 fps=1.3 q=21.3 size=     768KiB time=00:00:03.31 bitrate=1897.0kbits/s speed=0.0213x elapsed=0:02:35.37    \nframe=  201 fps=1.3 q=21.3 size=     768KiB time=00:00:03.31 bitrate=1897.0kbits/s speed=0.0213x elapsed=0:02:35.93    \nframe=  201 fps=1.3 q=21.3 size=     768KiB time=00:00:03.31 bitrate=1897.0kbits/s speed=0.0212x elapsed=0:02:36.55    \nframe=  201 fps=1.3 q=21.3 size=     768KiB time=00:00:03.31 bitrate=1897.0kbits/s speed=0.0211x elapsed=0:02:37.12    \nframe=  202 fps=1.3 q=15.1 size=     768KiB time=00:00:03.33 bitrate=1887.5kbits/s speed=0.0211x elapsed=0:02:37.67    \nframe=  202 fps=1.3 q=15.1 size=     768KiB time=00:00:03.33 bitrate=1887.5kbits/s speed=0.0211x elapsed=0:02:38.23    \nframe=  203 fps=1.3 q=20.8 size=     768KiB time=00:00:03.35 bitrate=1878.2kbits/s speed=0.0211x elapsed=0:02:38.78    \nframe=  203 fps=1.3 q=20.8 size=     768KiB time=00:00:03.35 bitrate=1878.2kbits/s speed=0.021x elapsed=0:02:39.37    \nframe=  203 fps=1.3 q=20.8 size=     768KiB time=00:00:03.35 bitrate=1878.2kbits/s speed=0.021x elapsed=0:02:39.89    \nframe=  203 fps=1.3 q=20.8 size=     768KiB time=00:00:03.35 bitrate=1878.2kbits/s speed=0.0209x elapsed=0:02:40.40    \nframe=  204 fps=1.3 q=22.9 size=     768KiB time=00:00:03.36 bitrate=1868.9kbits/s speed=0.0209x elapsed=0:02:40.93    \nframe=  204 fps=1.3 q=22.9 size=     768KiB time=00:00:03.36 bitrate=1868.9kbits/s speed=0.0208x elapsed=0:02:41.47    \nframe=  204 fps=1.3 q=22.9 size=     768KiB time=00:00:03.36 bitrate=1868.9kbits/s speed=0.0208x elapsed=0:02:41.99    \nframe=  205 fps=1.3 q=22.9 size=     768KiB time=00:00:03.38 bitrate=1859.6kbits/s speed=0.0208x elapsed=0:02:42.51    \nframe=  205 fps=1.3 q=22.9 size=     768KiB time=00:00:03.38 bitrate=1859.6kbits/s speed=0.0208x elapsed=0:02:43.01    \nframe=  206 fps=1.3 q=22.8 size=     768KiB time=00:00:03.40 bitrate=1850.5kbits/s speed=0.0208x elapsed=0:02:43.54    \nframe=  207 fps=1.3 q=15.5 size=     768KiB time=00:00:03.41 bitrate=1841.5kbits/s speed=0.0208x elapsed=0:02:44.07    \nframe=  208 fps=1.3 q=21.2 size=     768KiB time=00:00:03.43 bitrate=1832.6kbits/s speed=0.0209x elapsed=0:02:44.62    \nframe=  208 fps=1.3 q=21.2 size=     768KiB time=00:00:03.43 bitrate=1832.6kbits/s speed=0.0208x elapsed=0:02:45.16    \nframe=  209 fps=1.3 q=23.4 size=     768KiB time=00:00:03.45 bitrate=1823.7kbits/s speed=0.0208x elapsed=0:02:45.69    \nframe=  209 fps=1.3 q=23.4 size=     768KiB time=00:00:03.45 bitrate=1823.7kbits/s speed=0.0208x elapsed=0:02:46.21    \nframe=  210 fps=1.3 q=23.0 size=     768KiB time=00:00:03.46 bitrate=1814.9kbits/s speed=0.0208x elapsed=0:02:46.75    \nframe=  210 fps=1.3 q=23.0 size=     768KiB time=00:00:03.46 bitrate=1814.9kbits/s speed=0.0207x elapsed=0:02:47.28    \nframe=  211 fps=1.3 q=22.6 size=     768KiB time=00:00:03.48 bitrate=1806.3kbits/s speed=0.0208x elapsed=0:02:47.80    \nframe=  211 fps=1.3 q=22.6 size=     768KiB time=00:00:03.48 bitrate=1806.3kbits/s speed=0.0207x elapsed=0:02:48.33    \nframe=  211 fps=1.2 q=22.6 size=     768KiB time=00:00:03.48 bitrate=1806.3kbits/s speed=0.0206x elapsed=0:02:48.88    \nframe=  212 fps=1.3 q=15.6 size=     768KiB time=00:00:03.50 bitrate=1797.7kbits/s speed=0.0207x elapsed=0:02:49.39    \nframe=  213 fps=1.3 q=20.9 size=     768KiB time=00:00:03.51 bitrate=1789.1kbits/s speed=0.0207x elapsed=0:02:49.92    \nframe=  213 fps=1.2 q=20.9 size=     768KiB time=00:00:03.51 bitrate=1789.1kbits/s speed=0.0206x elapsed=0:02:50.44    \nframe=  214 fps=1.3 q=22.7 size=     768KiB time=00:00:03.53 bitrate=1780.7kbits/s speed=0.0207x elapsed=0:02:50.96    \nframe=  215 fps=1.3 q=21.9 size=     768KiB time=00:00:03.55 bitrate=1772.3kbits/s speed=0.0207x elapsed=0:02:51.49    \nframe=  216 fps=1.3 q=22.3 size=     768KiB time=00:00:03.56 bitrate=1764.1kbits/s speed=0.0207x elapsed=0:02:52.04    \nframe=  216 fps=1.3 q=22.3 size=     768KiB time=00:00:03.56 bitrate=1764.1kbits/s speed=0.0207x elapsed=0:02:52.55    \nframe=  216 fps=1.2 q=22.3 size=     768KiB time=00:00:03.56 bitrate=1764.1kbits/s speed=0.0206x elapsed=0:02:53.07    \nframe=  216 fps=1.2 q=22.3 size=     768KiB time=00:00:03.56 bitrate=1764.1kbits/s speed=0.0205x elapsed=0:02:53.59    \nframe=  217 fps=1.2 q=16.1 size=     768KiB time=00:00:03.58 bitrate=1755.9kbits/s speed=0.0206x elapsed=0:02:54.12    \nframe=  217 fps=1.2 q=16.1 size=     768KiB time=00:00:03.58 bitrate=1755.9kbits/s speed=0.0205x elapsed=0:02:54.66    \nframe=  218 fps=1.2 q=21.4 size=     768KiB time=00:00:03.60 bitrate=1747.7kbits/s speed=0.0205x elapsed=0:02:55.18    \nframe=  218 fps=1.2 q=21.4 size=     768KiB time=00:00:03.60 bitrate=1747.7kbits/s speed=0.0205x elapsed=0:02:55.73    \nframe=  218 fps=1.2 q=21.4 size=     768KiB time=00:00:03.60 bitrate=1747.7kbits/s speed=0.0204x elapsed=0:02:56.29    \nframe=  219 fps=1.2 q=23.3 size=     768KiB time=00:00:03.61 bitrate=1739.7kbits/s speed=0.0205x elapsed=0:02:56.84    \nframe=  219 fps=1.2 q=23.3 size=     768KiB time=00:00:03.61 bitrate=1739.7kbits/s speed=0.0204x elapsed=0:02:57.40    \nframe=  219 fps=1.2 q=23.3 size=     768KiB time=00:00:03.61 bitrate=1739.7kbits/s speed=0.0203x elapsed=0:02:57.96    \nframe=  219 fps=1.2 q=23.3 size=     768KiB time=00:00:03.61 bitrate=1739.7kbits/s speed=0.0203x elapsed=0:02:58.49    \nframe=  219 fps=1.2 q=23.3 size=     768KiB time=00:00:03.61 bitrate=1739.7kbits/s speed=0.0202x elapsed=0:02:59.06    \nframe=  219 fps=1.2 q=23.3 size=     768KiB time=00:00:03.61 bitrate=1739.7kbits/s speed=0.0201x elapsed=0:02:59.62    \nframe=  220 fps=1.2 q=22.3 size=     768KiB time=00:00:03.63 bitrate=1731.7kbits/s speed=0.0202x elapsed=0:03:00.14    \nframe=  220 fps=1.2 q=22.3 size=     768KiB time=00:00:03.63 bitrate=1731.7kbits/s speed=0.0201x elapsed=0:03:00.68    \nframe=  220 fps=1.2 q=22.3 size=     768KiB time=00:00:03.63 bitrate=1731.7kbits/s speed=0.0201x elapsed=0:03:01.19    \nframe=  221 fps=1.2 q=22.4 size=     768KiB time=00:00:03.65 bitrate=1723.8kbits/s speed=0.0201x elapsed=0:03:01.73    \nframe=  221 fps=1.2 q=22.4 size=     768KiB time=00:00:03.65 bitrate=1723.8kbits/s speed=0.02x elapsed=0:03:02.30    \nframe=  221 fps=1.2 q=22.4 size=     768KiB time=00:00:03.65 bitrate=1723.8kbits/s speed=0.02x elapsed=0:03:02.83    \nframe=  221 fps=1.2 q=22.4 size=     768KiB time=00:00:03.65 bitrate=1723.8kbits/s speed=0.0199x elapsed=0:03:03.38    \nframe=  221 fps=1.2 q=22.4 size=     768KiB time=00:00:03.65 bitrate=1723.8kbits/s speed=0.0198x elapsed=0:03:03.90    \nframe=  221 fps=1.2 q=22.4 size=     768KiB time=00:00:03.65 bitrate=1723.8kbits/s speed=0.0198x elapsed=0:03:04.46    \nframe=  222 fps=1.2 q=15.1 size=     768KiB time=00:00:03.66 bitrate=1715.9kbits/s speed=0.0198x elapsed=0:03:05.02    \nframe=  222 fps=1.2 q=15.1 size=     768KiB time=00:00:03.66 bitrate=1715.9kbits/s speed=0.0198x elapsed=0:03:05.63    \nframe=  222 fps=1.2 q=15.1 size=     768KiB time=00:00:03.66 bitrate=1715.9kbits/s speed=0.0197x elapsed=0:03:06.17    \nframe=  224 fps=1.2 q=22.7 size=     768KiB time=00:00:03.70 bitrate=1700.5kbits/s speed=0.0198x elapsed=0:03:06.70    \nframe=  224 fps=1.2 q=22.7 size=     768KiB time=00:00:03.70 bitrate=1700.5kbits/s speed=0.0198x elapsed=0:03:07.24    \nframe=  226 fps=1.2 q=23.2 size=     768KiB time=00:00:03.73 bitrate=1685.3kbits/s speed=0.0199x elapsed=0:03:07.77    \nframe=  227 fps=1.2 q=15.7 size=     768KiB time=00:00:03.75 bitrate=1677.8kbits/s speed=0.0199x elapsed=0:03:08.30    \nframe=  228 fps=1.2 q=22.3 size=     768KiB time=00:00:03.76 bitrate=1670.4kbits/s speed=0.0199x elapsed=0:03:08.82    \nframe=  229 fps=1.2 q=24.3 size=     768KiB time=00:00:03.78 bitrate=1663.0kbits/s speed=0.02x elapsed=0:03:09.33    \nframe=  230 fps=1.2 q=24.3 size=     768KiB time=00:00:03.80 bitrate=1655.7kbits/s speed=0.02x elapsed=0:03:09.87    \nframe=  230 fps=1.2 q=24.3 size=     768KiB time=00:00:03.80 bitrate=1655.7kbits/s speed=0.02x elapsed=0:03:10.43    \nframe=  230 fps=1.2 q=24.3 size=     768KiB time=00:00:03.80 bitrate=1655.7kbits/s speed=0.0199x elapsed=0:03:10.98    \nframe=  232 fps=1.2 q=16.0 size=     768KiB time=00:00:03.83 bitrate=1641.3kbits/s speed=0.02x elapsed=0:03:11.53    \nframe=  233 fps=1.2 q=23.6 size=     768KiB time=00:00:03.85 bitrate=1634.2kbits/s speed=0.02x elapsed=0:03:12.04    \nframe=  234 fps=1.2 q=26.3 size=     768KiB time=00:00:03.86 bitrate=1627.2kbits/s speed=0.0201x elapsed=0:03:12.58    \nframe=  234 fps=1.2 q=26.3 size=     768KiB time=00:00:03.86 bitrate=1627.2kbits/s speed=0.02x elapsed=0:03:13.10    \nframe=  234 fps=1.2 q=26.3 size=     768KiB time=00:00:03.86 bitrate=1627.2kbits/s speed=0.02x elapsed=0:03:13.62    \nframe=  235 fps=1.2 q=26.1 size=     768KiB time=00:00:03.88 bitrate=1620.2kbits/s speed=0.02x elapsed=0:03:14.15    \nframe=  236 fps=1.2 q=26.1 size=     768KiB time=00:00:03.88 bitrate=1620.2kbits/s speed=0.0199x elapsed=0:03:14.68    \nframe=  236 fps=1.2 q=26.1 size=     768KiB time=00:00:03.90 bitrate=1613.3kbits/s speed=0.02x elapsed=0:03:15.24    \nframe=  236 fps=1.2 q=26.1 size=     768KiB time=00:00:03.90 bitrate=1613.3kbits/s speed=0.0199x elapsed=0:03:15.83    \nframe=  236 fps=1.2 q=26.1 size=     768KiB time=00:00:03.90 bitrate=1613.3kbits/s speed=0.0199x elapsed=0:03:16.38    \nframe=  236 fps=1.2 q=26.1 size=     768KiB time=00:00:03.90 bitrate=1613.3kbits/s speed=0.0198x elapsed=0:03:16.92    \nframe=  236 fps=1.2 q=26.1 size=     768KiB time=00:00:03.90 bitrate=1613.3kbits/s speed=0.0198x elapsed=0:03:17.46    \nframe=  236 fps=1.2 q=26.1 size=     768KiB time=00:00:03.90 bitrate=1613.3kbits/s speed=0.0197x elapsed=0:03:18.01    \nframe=  237 fps=1.2 q=16.0 size=     768KiB time=00:00:03.91 bitrate=1606.4kbits/s speed=0.0197x elapsed=0:03:18.55    \nframe=  237 fps=1.2 q=16.0 size=     768KiB time=00:00:03.91 bitrate=1606.4kbits/s speed=0.0197x elapsed=0:03:19.07    \nframe=  237 fps=1.2 q=16.0 size=     768KiB time=00:00:03.91 bitrate=1606.4kbits/s speed=0.0196x elapsed=0:03:19.62    \nframe=  237 fps=1.2 q=16.0 size=     768KiB time=00:00:03.91 bitrate=1606.4kbits/s speed=0.0196x elapsed=0:03:20.14    \nframe=  238 fps=1.2 q=23.2 size=     768KiB time=00:00:03.93 bitrate=1599.6kbits/s speed=0.0196x elapsed=0:03:20.72    \nframe=  238 fps=1.2 q=23.2 size=     768KiB time=00:00:03.93 bitrate=1599.6kbits/s speed=0.0195x elapsed=0:03:21.27    \nframe=  240 fps=1.2 q=25.5 size=     768KiB time=00:00:03.95 bitrate=1592.9kbits/s speed=0.0196x elapsed=0:03:21.82    \nframe=  240 fps=1.2 q=25.5 size=     768KiB time=00:00:03.96 bitrate=1586.2kbits/s speed=0.0196x elapsed=0:03:22.38    \nframe=  240 fps=1.2 q=25.5 size=     768KiB time=00:00:03.96 bitrate=1586.2kbits/s speed=0.0195x elapsed=0:03:22.94    \nframe=  240 fps=1.2 q=25.5 size=     768KiB time=00:00:03.96 bitrate=1586.2kbits/s speed=0.0195x elapsed=0:03:23.49    \nframe=  240 fps=1.2 q=25.5 size=     768KiB time=00:00:03.96 bitrate=1586.2kbits/s speed=0.0194x elapsed=0:03:24.01    \nframe=  241 fps=1.2 q=25.7 size=     768KiB time=00:00:03.98 bitrate=1579.5kbits/s speed=0.0195x elapsed=0:03:24.53    \nframe=  241 fps=1.2 q=25.7 size=     768KiB time=00:00:03.98 bitrate=1579.5kbits/s speed=0.0194x elapsed=0:03:25.05    \nframe=  241 fps=1.2 q=25.7 size=     768KiB time=00:00:03.98 bitrate=1579.5kbits/s speed=0.0194x elapsed=0:03:25.60    \nframe=  241 fps=1.2 q=25.7 size=     768KiB time=00:00:03.98 bitrate=1579.5kbits/s speed=0.0193x elapsed=0:03:26.16    \nframe=  241 fps=1.2 q=25.7 size=     768KiB time=00:00:03.98 bitrate=1579.5kbits/s speed=0.0193x elapsed=0:03:26.73    \nframe=  241 fps=1.2 q=25.7 size=     768KiB time=00:00:03.98 bitrate=1579.5kbits/s speed=0.0192x elapsed=0:03:27.31    \nframe=  241 fps=1.2 q=25.7 size=     768KiB time=00:00:03.98 bitrate=1579.5kbits/s speed=0.0192x elapsed=0:03:27.84    \nframe=  241 fps=1.2 q=25.7 size=     768KiB time=00:00:03.98 bitrate=1579.5kbits/s speed=0.0191x elapsed=0:03:28.41    \nframe=  242 fps=1.2 q=15.9 size=     768KiB time=00:00:04.00 bitrate=1573.0kbits/s speed=0.0191x elapsed=0:03:28.94    \nframe=  243 fps=1.2 q=22.9 size=     768KiB time=00:00:04.01 bitrate=1566.4kbits/s speed=0.0192x elapsed=0:03:29.52    \nframe=  243 fps=1.2 q=22.9 size=     768KiB time=00:00:04.01 bitrate=1566.4kbits/s speed=0.0191x elapsed=0:03:30.12    \nframe=  243 fps=1.2 q=22.9 size=     768KiB time=00:00:04.01 bitrate=1566.4kbits/s speed=0.0191x elapsed=0:03:30.68    \nframe=  243 fps=1.2 q=22.9 size=     768KiB time=00:00:04.01 bitrate=1566.4kbits/s speed=0.019x elapsed=0:03:31.27    \nframe=  243 fps=1.1 q=22.9 size=     768KiB time=00:00:04.01 bitrate=1566.4kbits/s speed=0.019x elapsed=0:03:31.85    \nframe=  243 fps=1.1 q=22.9 size=     768KiB time=00:00:04.01 bitrate=1566.4kbits/s speed=0.0189x elapsed=0:03:32.47    \nframe=  244 fps=1.1 q=25.5 size=     768KiB time=00:00:04.03 bitrate=1560.0kbits/s speed=0.0189x elapsed=0:03:32.98    \nframe=  245 fps=1.1 q=24.9 size=     768KiB time=00:00:04.03 bitrate=1560.0kbits/s speed=0.0189x elapsed=0:03:33.51    \nframe=  245 fps=1.1 q=24.9 size=     768KiB time=00:00:04.05 bitrate=1553.5kbits/s speed=0.0189x elapsed=0:03:34.08    \nframe=  245 fps=1.1 q=24.9 size=     768KiB time=00:00:04.05 bitrate=1553.5kbits/s speed=0.0189x elapsed=0:03:34.61    \nframe=  246 fps=1.1 q=26.1 size=     768KiB time=00:00:04.06 bitrate=1547.2kbits/s speed=0.0189x elapsed=0:03:35.17    \nframe=  246 fps=1.1 q=26.1 size=     768KiB time=00:00:04.06 bitrate=1547.2kbits/s speed=0.0189x elapsed=0:03:35.68    \nframe=  246 fps=1.1 q=26.1 size=     768KiB time=00:00:04.06 bitrate=1547.2kbits/s speed=0.0188x elapsed=0:03:36.20    \nframe=  248 fps=1.1 q=22.1 size=     768KiB time=00:00:04.10 bitrate=1534.6kbits/s speed=0.0189x elapsed=0:03:36.76    \nframe=  248 fps=1.1 q=22.1 size=     768KiB time=00:00:04.10 bitrate=1534.6kbits/s speed=0.0189x elapsed=0:03:37.28    \nframe=  249 fps=1.1 q=23.5 size=     768KiB time=00:00:04.11 bitrate=1528.4kbits/s speed=0.0189x elapsed=0:03:37.81    \nframe=  249 fps=1.1 q=23.5 size=     768KiB time=00:00:04.11 bitrate=1528.4kbits/s speed=0.0189x elapsed=0:03:38.34    \nframe=  249 fps=1.1 q=23.5 size=     768KiB time=00:00:04.11 bitrate=1528.4kbits/s speed=0.0188x elapsed=0:03:38.88    \nframe=  250 fps=1.1 q=24.3 size=     768KiB time=00:00:04.13 bitrate=1522.2kbits/s speed=0.0188x elapsed=0:03:39.41    \nframe=  250 fps=1.1 q=24.3 size=     768KiB time=00:00:04.13 bitrate=1522.2kbits/s speed=0.0188x elapsed=0:03:39.92    \nframe=  251 fps=1.1 q=23.9 size=     768KiB time=00:00:04.15 bitrate=1516.1kbits/s speed=0.0188x elapsed=0:03:40.47    \nframe=  251 fps=1.1 q=23.9 size=     768KiB time=00:00:04.15 bitrate=1516.1kbits/s speed=0.0188x elapsed=0:03:41.00    \nframe=  252 fps=1.1 q=14.5 size=     768KiB time=00:00:04.16 bitrate=1510.0kbits/s speed=0.0188x elapsed=0:03:41.54    \nframe=  254 fps=1.1 q=22.4 size=    1024KiB time=00:00:04.20 bitrate=1997.4kbits/s speed=0.0189x elapsed=0:03:42.06    \nframe=  254 fps=1.1 q=22.4 size=    1024KiB time=00:00:04.20 bitrate=1997.4kbits/s speed=0.0189x elapsed=0:03:42.58    \nframe=  254 fps=1.1 q=22.4 size=    1024KiB time=00:00:04.20 bitrate=1997.4kbits/s speed=0.0188x elapsed=0:03:43.10    \nframe=  256 fps=1.1 q=23.2 size=    1024KiB time=00:00:04.23 bitrate=1981.6kbits/s speed=0.0189x elapsed=0:03:43.66    \nframe=  256 fps=1.1 q=23.2 size=    1024KiB time=00:00:04.23 bitrate=1981.6kbits/s speed=0.0189x elapsed=0:03:44.19    \nframe=  257 fps=1.1 q=15.9 size=    1024KiB time=00:00:04.25 bitrate=1973.9kbits/s speed=0.0189x elapsed=0:03:44.75    \nframe=  257 fps=1.1 q=15.9 size=    1024KiB time=00:00:04.25 bitrate=1973.9kbits/s speed=0.0189x elapsed=0:03:45.30    \nframe=  258 fps=1.1 q=22.6 size=    1024KiB time=00:00:04.26 bitrate=1966.2kbits/s speed=0.0189x elapsed=0:03:45.83    \nframe=  260 fps=1.1 q=25.0 size=    1024KiB time=00:00:04.30 bitrate=1950.9kbits/s speed=0.019x elapsed=0:03:46.36    \nframe=  260 fps=1.1 q=25.0 size=    1024KiB time=00:00:04.30 bitrate=1950.9kbits/s speed=0.019x elapsed=0:03:46.90    \nframe=  260 fps=1.1 q=25.0 size=    1024KiB time=00:00:04.30 bitrate=1950.9kbits/s speed=0.0189x elapsed=0:03:47.42    \nframe=  260 fps=1.1 q=25.0 size=    1024KiB time=00:00:04.30 bitrate=1950.9kbits/s speed=0.0189x elapsed=0:03:47.95    \nframe=  261 fps=1.1 q=25.4 size=    1024KiB time=00:00:04.31 bitrate=1943.4kbits/s speed=0.0189x elapsed=0:03:48.48    \nframe=  262 fps=1.1 q=15.9 size=    1024KiB time=00:00:04.33 bitrate=1935.9kbits/s speed=0.0189x elapsed=0:03:49.00    \nframe=  262 fps=1.1 q=15.9 size=    1024KiB time=00:00:04.33 bitrate=1935.9kbits/s speed=0.0189x elapsed=0:03:49.52    \nframe=  263 fps=1.1 q=23.5 size=    1024KiB time=00:00:04.35 bitrate=1928.5kbits/s speed=0.0189x elapsed=0:03:50.07    \nframe=  263 fps=1.1 q=23.5 size=    1024KiB time=00:00:04.35 bitrate=1928.5kbits/s speed=0.0189x elapsed=0:03:50.59    \nframe=  264 fps=1.1 q=25.8 size=    1024KiB time=00:00:04.36 bitrate=1921.1kbits/s speed=0.0189x elapsed=0:03:51.12    \nframe=  265 fps=1.1 q=26.4 size=    1024KiB time=00:00:04.38 bitrate=1913.8kbits/s speed=0.0189x elapsed=0:03:51.64    \nframe=  266 fps=1.1 q=25.7 size=    1024KiB time=00:00:04.40 bitrate=1906.6kbits/s speed=0.019x elapsed=0:03:52.18    \nframe=  266 fps=1.1 q=25.7 size=    1024KiB time=00:00:04.40 bitrate=1906.6kbits/s speed=0.0189x elapsed=0:03:52.69    \nframe=  266 fps=1.1 q=25.7 size=    1024KiB time=00:00:04.40 bitrate=1906.6kbits/s speed=0.0189x elapsed=0:03:53.22    \nframe=  266 fps=1.1 q=25.7 size=    1024KiB time=00:00:04.40 bitrate=1906.6kbits/s speed=0.0188x elapsed=0:03:53.75    \nframe=  267 fps=1.1 q=15.8 size=    1024KiB time=00:00:04.41 bitrate=1899.4kbits/s speed=0.0189x elapsed=0:03:54.28    \nframe=  269 fps=1.1 q=25.0 size=    1024KiB time=00:00:04.45 bitrate=1885.2kbits/s speed=0.019x elapsed=0:03:54.81    \nframe=  269 fps=1.1 q=25.0 size=    1024KiB time=00:00:04.45 bitrate=1885.2kbits/s speed=0.0189x elapsed=0:03:55.35    \nframe=  269 fps=1.1 q=25.0 size=    1024KiB time=00:00:04.45 bitrate=1885.2kbits/s speed=0.0189x elapsed=0:03:55.87    \nframe=  271 fps=1.1 q=24.1 size=    1024KiB time=00:00:04.48 bitrate=1871.1kbits/s speed=0.019x elapsed=0:03:56.41    \nframe=  272 fps=1.1 q=15.9 size=    1024KiB time=00:00:04.50 bitrate=1864.2kbits/s speed=0.019x elapsed=0:03:56.93    \nframe=  273 fps=1.1 q=22.4 size=    1024KiB time=00:00:04.51 bitrate=1857.3kbits/s speed=0.019x elapsed=0:03:57.47    \nframe=  274 fps=1.2 q=24.9 size=    1024KiB time=00:00:04.53 bitrate=1850.5kbits/s speed=0.019x elapsed=0:03:58.01    \nframe=  275 fps=1.2 q=24.6 size=    1024KiB time=00:00:04.55 bitrate=1843.7kbits/s speed=0.0191x elapsed=0:03:58.52    \nframe=  276 fps=1.2 q=24.0 size=    1024KiB time=00:00:04.56 bitrate=1837.0kbits/s speed=0.0191x elapsed=0:03:59.03    \nframe=  276 fps=1.2 q=24.0 size=    1024KiB time=00:00:04.56 bitrate=1837.0kbits/s speed=0.0191x elapsed=0:03:59.56    \nframe=  276 fps=1.1 q=24.0 size=    1024KiB time=00:00:04.56 bitrate=1837.0kbits/s speed=0.019x elapsed=0:04:00.09    \nframe=  278 fps=1.2 q=21.7 size=    1024KiB time=00:00:04.60 bitrate=1823.7kbits/s speed=0.0191x elapsed=0:04:00.60    \nframe=  279 fps=1.2 q=23.2 size=    1024KiB time=00:00:04.61 bitrate=1817.1kbits/s speed=0.0191x elapsed=0:04:01.11    \nframe=  279 fps=1.2 q=23.2 size=    1024KiB time=00:00:04.61 bitrate=1817.1kbits/s speed=0.0191x elapsed=0:04:01.66    \nframe=  280 fps=1.2 q=23.3 size=    1024KiB time=00:00:04.63 bitrate=1810.6kbits/s speed=0.0191x elapsed=0:04:02.19    \nframe=  281 fps=1.2 q=23.0 size=    1024KiB time=00:00:04.63 bitrate=1810.6kbits/s speed=0.0191x elapsed=0:04:02.71    \nframe=  282 fps=1.2 q=15.9 size=    1024KiB time=00:00:04.66 bitrate=1797.6kbits/s speed=0.0192x elapsed=0:04:03.23    \nframe=  283 fps=1.2 q=21.4 size=    1024KiB time=00:00:04.68 bitrate=1791.2kbits/s speed=0.0192x elapsed=0:04:03.75    \nframe=  283 fps=1.2 q=21.4 size=    1024KiB time=00:00:04.68 bitrate=1791.2kbits/s speed=0.0192x elapsed=0:04:04.27    \nframe=  284 fps=1.2 q=22.4 size=    1024KiB time=00:00:04.70 bitrate=1784.9kbits/s speed=0.0192x elapsed=0:04:04.80    \nframe=  285 fps=1.2 q=22.6 size=    1024KiB time=00:00:04.71 bitrate=1778.6kbits/s speed=0.0192x elapsed=0:04:05.34    \nframe=  286 fps=1.2 q=22.8 size=    1024KiB time=00:00:04.73 bitrate=1772.3kbits/s speed=0.0193x elapsed=0:04:05.86    \nframe=  287 fps=1.2 q=16.1 size=    1024KiB time=00:00:04.75 bitrate=1766.1kbits/s speed=0.0193x elapsed=0:04:06.38    \nframe=  287 fps=1.2 q=16.1 size=    1024KiB time=00:00:04.75 bitrate=1766.1kbits/s speed=0.0192x elapsed=0:04:06.91    \nframe=  288 fps=1.2 q=21.1 size=    1024KiB time=00:00:04.76 bitrate=1759.9kbits/s speed=0.0193x elapsed=0:04:07.43    \nframe=  289 fps=1.2 q=22.2 size=    1024KiB time=00:00:04.78 bitrate=1753.8kbits/s speed=0.0193x elapsed=0:04:07.95    \nframe=  289 fps=1.2 q=22.2 size=    1024KiB time=00:00:04.78 bitrate=1753.8kbits/s speed=0.0192x elapsed=0:04:08.49    \nframe=  290 fps=1.2 q=20.4 size=    1024KiB time=00:00:04.80 bitrate=1747.7kbits/s speed=0.0193x elapsed=0:04:09.02    \nframe=  291 fps=1.2 q=21.9 size=    1024KiB time=00:00:04.81 bitrate=1741.7kbits/s speed=0.0193x elapsed=0:04:09.55    \nframe=  291 fps=1.2 q=21.9 size=    1024KiB time=00:00:04.81 bitrate=1741.7kbits/s speed=0.0193x elapsed=0:04:10.07    \nframe=  292 fps=1.2 q=16.1 size=    1024KiB time=00:00:04.83 bitrate=1735.6kbits/s speed=0.0193x elapsed=0:04:10.61    \nframe=  292 fps=1.2 q=16.1 size=    1024KiB time=00:00:04.83 bitrate=1735.6kbits/s speed=0.0192x elapsed=0:04:11.13    \nframe=  293 fps=1.2 q=18.3 size=    1024KiB time=00:00:04.85 bitrate=1729.7kbits/s speed=0.0193x elapsed=0:04:11.68    \nframe=  294 fps=1.2 q=21.2 size=    1024KiB time=00:00:04.86 bitrate=1723.8kbits/s speed=0.0193x elapsed=0:04:12.20    \nframe=  294 fps=1.2 q=21.2 size=    1024KiB time=00:00:04.86 bitrate=1723.8kbits/s speed=0.0193x elapsed=0:04:12.72    \nframe=  294 fps=1.2 q=21.2 size=    1024KiB time=00:00:04.86 bitrate=1723.8kbits/s speed=0.0192x elapsed=0:04:13.24    \nframe=  296 fps=1.2 q=17.2 size=    1024KiB time=00:00:04.90 bitrate=1712.0kbits/s speed=0.0193x elapsed=0:04:13.76    \nframe=  296 fps=1.2 q=17.2 size=    1024KiB time=00:00:04.90 bitrate=1712.0kbits/s speed=0.0193x elapsed=0:04:14.31    \nframe=  297 fps=1.2 q=17.3 size=    1024KiB time=00:00:04.91 bitrate=1706.2kbits/s speed=0.0193x elapsed=0:04:14.85    \nframe=  298 fps=1.2 q=20.3 size=    1024KiB time=00:00:04.93 bitrate=1700.5kbits/s speed=0.0193x elapsed=0:04:15.37    \nframe=  299 fps=1.2 q=17.3 size=    1024KiB time=00:00:04.95 bitrate=1694.7kbits/s speed=0.0193x elapsed=0:04:15.91    \n[mp4 @ 0000020fbb86ac00] Starting second pass: moving the moov atom to the beginning of the file\n[out#0/mp4 @ 0000020fbb86aac0] video:1200KiB audio:0KiB subtitle:0KiB other streams:0KiB global headers:2KiB muxing overhead: 0.554974%\nframe=  300 fps=1.2 q=19.1 Lsize=    1206KiB time=00:00:04.96 bitrate=1989.8kbits/s speed=0.0194x elapsed=0:04:15.98    \nx265 [info]: frame I:      2, Avg QP:23.57  kb/s: 8502.00 \nx265 [info]: frame P:     59, Avg QP:17.07  kb/s: 6751.66 \nx265 [info]: frame B:    239, Avg QP:22.87  kb/s: 727.05  \nx265 [info]: Weighted P-Frames: Y:0.0% UV:0.0%\n\nencoded 300 frames in 255.67s (1.17 fps), 1963.72 kb/s, Avg QP:21.73\n",
  "seconds": 256.3766813278198,
  "probe_out": {}
}